<svg width="24" height="24" viewBox="0 0 24 24" fill="none" xmlns="http://www.w3.org/2000/svg">
<g clip-path="url(#clip0_4_466)">
<path d="M21.0237 9.88235H15.3845L17.4109 2.90824C17.8375 1.45412 16.7177 0 15.1712 0C14.398 0 13.6514 0.338824 13.1448 0.917647L5.33259 9.88235H0V24H5.33259H6.66574H19.2373C20.6505 24 21.877 23.0541 22.1569 21.7271L23.9433 13.2565C24.3033 11.5059 22.9035 9.88235 21.0237 9.88235ZM5.33259 22.5882H1.33315V11.2941H5.33259V22.5882ZM22.6368 12.9459L20.8504 21.4165C20.7171 22.0941 20.0372 22.5882 19.2373 22.5882H6.66574V10.4329L14.1314 1.87765C14.3847 1.58118 14.7713 1.41176 15.1712 1.41176C15.5178 1.41176 15.8378 1.56706 16.0111 1.83529C16.1044 1.97647 16.2111 2.20235 16.1311 2.49882L14.1047 9.47294L13.5714 11.2941H15.3712H21.0104C21.557 11.2941 22.0769 11.5341 22.3835 11.9435C22.5569 12.1553 22.7302 12.5082 22.6368 12.9459Z" fill="black"/>
</g>
<defs>
<clipPath id="clip0_4_466">
<rect width="24" height="24" fill="white"/>
</clipPath>
</defs>
</svg>
