<svg width="235" height="50" viewBox="0 0 235 50" fill="none" xmlns="http://www.w3.org/2000/svg">
<path d="M71.373 32.3242L78.1055 11.4062H82.9746L73.7988 37H70.5117L71.373 32.3242ZM65.1504 11.4062L71.8301 32.3242L72.7441 37H69.4395L60.2988 11.4062H65.1504ZM89.9531 17.9805V37H85.6992V17.9805H89.9531ZM85.418 12.9883C85.418 12.3437 85.6289 11.8105 86.0508 11.3887C86.4844 10.9551 87.082 10.7383 87.8438 10.7383C88.5938 10.7383 89.1855 10.9551 89.6191 11.3887C90.0527 11.8105 90.2695 12.3437 90.2695 12.9883C90.2695 13.6211 90.0527 14.1484 89.6191 14.5703C89.1855 14.9922 88.5938 15.2031 87.8438 15.2031C87.082 15.2031 86.4844 14.9922 86.0508 14.5703C85.6289 14.1484 85.418 13.6211 85.418 12.9883ZM106.195 33.0625V10H110.449V37H106.6L106.195 33.0625ZM93.8203 27.7012V27.332C93.8203 25.8906 93.9902 24.5781 94.3301 23.3945C94.6699 22.1992 95.1621 21.1738 95.8066 20.3184C96.4512 19.4512 97.2363 18.7891 98.1621 18.332C99.0879 17.8633 100.131 17.6289 101.291 17.6289C102.439 17.6289 103.447 17.8516 104.314 18.2969C105.182 18.7422 105.92 19.3809 106.529 20.2129C107.139 21.0332 107.625 22.0176 107.988 23.166C108.352 24.3027 108.609 25.5684 108.762 26.9629V28.1406C108.609 29.5 108.352 30.7422 107.988 31.8672C107.625 32.9922 107.139 33.9648 106.529 34.7852C105.92 35.6055 105.176 36.2383 104.297 36.6836C103.43 37.1289 102.416 37.3516 101.256 37.3516C100.107 37.3516 99.0703 37.1113 98.1445 36.6309C97.2305 36.1504 96.4512 35.4766 95.8066 34.6094C95.1621 33.7422 94.6699 32.7227 94.3301 31.5508C93.9902 30.3672 93.8203 29.084 93.8203 27.7012ZM98.0566 27.332V27.7012C98.0566 28.5684 98.1328 29.377 98.2852 30.127C98.4492 30.877 98.7012 31.5391 99.041 32.1133C99.3809 32.6758 99.8203 33.1211 100.359 33.4492C100.91 33.7656 101.566 33.9238 102.328 33.9238C103.289 33.9238 104.08 33.7129 104.701 33.291C105.322 32.8691 105.809 32.3008 106.16 31.5859C106.523 30.8594 106.77 30.0508 106.898 29.1602V25.9785C106.828 25.2871 106.682 24.6426 106.459 24.0449C106.248 23.4473 105.961 22.9258 105.598 22.4805C105.234 22.0234 104.783 21.6719 104.244 21.4258C103.717 21.168 103.09 21.0391 102.363 21.0391C101.59 21.0391 100.934 21.2031 100.395 21.5312C99.8555 21.8594 99.4102 22.3105 99.0586 22.8848C98.7188 23.459 98.4668 24.127 98.3027 24.8887C98.1387 25.6504 98.0566 26.4648 98.0566 27.332ZM123.264 37.3516C121.857 37.3516 120.586 37.123 119.449 36.666C118.324 36.1973 117.363 35.5469 116.566 34.7148C115.781 33.8828 115.178 32.9043 114.756 31.7793C114.334 30.6543 114.123 29.4414 114.123 28.1406V27.4375C114.123 25.9492 114.34 24.6016 114.773 23.3945C115.207 22.1875 115.811 21.1562 116.584 20.3008C117.357 19.4336 118.271 18.7715 119.326 18.3145C120.381 17.8574 121.523 17.6289 122.754 17.6289C124.113 17.6289 125.303 17.8574 126.322 18.3145C127.342 18.7715 128.186 19.416 128.854 20.248C129.533 21.0684 130.037 22.0469 130.365 23.1836C130.705 24.3203 130.875 25.5742 130.875 26.9453V28.7559H116.18V25.7148H126.691V25.3809C126.668 24.6191 126.516 23.9043 126.234 23.2363C125.965 22.5684 125.549 22.0293 124.986 21.6191C124.424 21.209 123.674 21.0039 122.736 21.0039C122.033 21.0039 121.406 21.1562 120.855 21.4609C120.316 21.7539 119.865 22.1816 119.502 22.7441C119.139 23.3066 118.857 23.9863 118.658 24.7832C118.471 25.5684 118.377 26.4531 118.377 27.4375V28.1406C118.377 28.9727 118.488 29.7461 118.711 30.4609C118.945 31.1641 119.285 31.7793 119.73 32.3066C120.176 32.834 120.715 33.25 121.348 33.5547C121.98 33.8477 122.701 33.9941 123.51 33.9941C124.529 33.9941 125.438 33.7891 126.234 33.3789C127.031 32.9688 127.723 32.3887 128.309 31.6387L130.541 33.8008C130.131 34.3984 129.598 34.9727 128.941 35.5234C128.285 36.0625 127.482 36.502 126.533 36.8418C125.596 37.1816 124.506 37.3516 123.264 37.3516ZM133.371 27.7012V27.2969C133.371 25.9258 133.57 24.6543 133.969 23.4824C134.367 22.2988 134.941 21.2734 135.691 20.4062C136.453 19.5273 137.379 18.8477 138.469 18.3672C139.57 17.875 140.812 17.6289 142.195 17.6289C143.59 17.6289 144.832 17.875 145.922 18.3672C147.023 18.8477 147.955 19.5273 148.717 20.4062C149.479 21.2734 150.059 22.2988 150.457 23.4824C150.855 24.6543 151.055 25.9258 151.055 27.2969V27.7012C151.055 29.0723 150.855 30.3438 150.457 31.5156C150.059 32.6875 149.479 33.7129 148.717 34.5918C147.955 35.459 147.029 36.1387 145.939 36.6309C144.85 37.1113 143.613 37.3516 142.23 37.3516C140.836 37.3516 139.588 37.1113 138.486 36.6309C137.396 36.1387 136.471 35.459 135.709 34.5918C134.947 33.7129 134.367 32.6875 133.969 31.5156C133.57 30.3438 133.371 29.0723 133.371 27.7012ZM137.607 27.2969V27.7012C137.607 28.5566 137.695 29.3652 137.871 30.127C138.047 30.8887 138.322 31.5566 138.697 32.1309C139.072 32.7051 139.553 33.1562 140.139 33.4844C140.725 33.8125 141.422 33.9766 142.23 33.9766C143.016 33.9766 143.695 33.8125 144.27 33.4844C144.855 33.1562 145.336 32.7051 145.711 32.1309C146.086 31.5566 146.361 30.8887 146.537 30.127C146.725 29.3652 146.818 28.5566 146.818 27.7012V27.2969C146.818 26.4531 146.725 25.6562 146.537 24.9062C146.361 24.1445 146.08 23.4707 145.693 22.8848C145.318 22.2988 144.838 21.8418 144.252 21.5137C143.678 21.1738 142.992 21.0039 142.195 21.0039C141.398 21.0039 140.707 21.1738 140.121 21.5137C139.547 21.8418 139.072 22.2988 138.697 22.8848C138.322 23.4707 138.047 24.1445 137.871 24.9062C137.695 25.6562 137.607 26.4531 137.607 27.2969ZM165.557 11.4062V37H161.18V11.4062H165.557ZM173.59 11.4062V14.9219H153.217V11.4062H173.59ZM186.51 32.5176V17.9805H190.764V37H186.756L186.51 32.5176ZM187.107 28.5625L188.531 28.5273C188.531 29.8047 188.391 30.9824 188.109 32.0605C187.828 33.127 187.395 34.0586 186.809 34.8555C186.223 35.6406 185.473 36.2559 184.559 36.7012C183.645 37.1348 182.549 37.3516 181.271 37.3516C180.346 37.3516 179.496 37.2168 178.723 36.9473C177.949 36.6777 177.281 36.2617 176.719 35.6992C176.168 35.1367 175.74 34.4043 175.436 33.502C175.131 32.5996 174.979 31.5215 174.979 30.2676V17.9805H179.215V30.3027C179.215 30.9941 179.297 31.5742 179.461 32.043C179.625 32.5 179.848 32.8691 180.129 33.1504C180.41 33.4316 180.738 33.6309 181.113 33.748C181.488 33.8652 181.887 33.9238 182.309 33.9238C183.516 33.9238 184.465 33.6895 185.156 33.2207C185.859 32.7402 186.357 32.0957 186.65 31.2871C186.955 30.4785 187.107 29.5703 187.107 28.5625ZM195.123 10H199.359V32.9395L198.955 37H195.123V10ZM211.77 27.3145V27.6836C211.77 29.0898 211.611 30.3848 211.295 31.5684C210.99 32.7402 210.521 33.7598 209.889 34.627C209.268 35.4941 208.494 36.168 207.568 36.6484C206.654 37.1172 205.594 37.3516 204.387 37.3516C203.203 37.3516 202.172 37.1289 201.293 36.6836C200.414 36.2383 199.676 35.6055 199.078 34.7852C198.492 33.9648 198.018 32.9863 197.654 31.8496C197.291 30.7129 197.033 29.459 196.881 28.0879V26.9102C197.033 25.5273 197.291 24.2734 197.654 23.1484C198.018 22.0117 198.492 21.0332 199.078 20.2129C199.676 19.3809 200.408 18.7422 201.275 18.2969C202.154 17.8516 203.18 17.6289 204.352 17.6289C205.57 17.6289 206.643 17.8633 207.568 18.332C208.506 18.8008 209.285 19.4688 209.906 20.3359C210.527 21.1914 210.99 22.2109 211.295 23.3945C211.611 24.5781 211.77 25.8848 211.77 27.3145ZM207.533 27.6836V27.3145C207.533 26.459 207.463 25.6562 207.322 24.9062C207.182 24.1445 206.947 23.4766 206.619 22.9023C206.303 22.3281 205.869 21.877 205.318 21.5488C204.779 21.209 204.105 21.0391 203.297 21.0391C202.547 21.0391 201.902 21.168 201.363 21.4258C200.824 21.6836 200.373 22.0352 200.01 22.4805C199.646 22.9258 199.359 23.4414 199.148 24.0273C198.949 24.6133 198.814 25.2461 198.744 25.9258V29.1074C198.85 29.9863 199.072 30.7949 199.412 31.5332C199.764 32.2598 200.256 32.8457 200.889 33.291C201.521 33.7246 202.336 33.9414 203.332 33.9414C204.117 33.9414 204.779 33.7832 205.318 33.4668C205.857 33.1504 206.285 32.7109 206.602 32.1484C206.93 31.5742 207.164 30.9062 207.305 30.1445C207.457 29.3828 207.533 28.5625 207.533 27.6836ZM223.74 37.3516C222.334 37.3516 221.062 37.123 219.926 36.666C218.801 36.1973 217.84 35.5469 217.043 34.7148C216.258 33.8828 215.654 32.9043 215.232 31.7793C214.811 30.6543 214.6 29.4414 214.6 28.1406V27.4375C214.6 25.9492 214.816 24.6016 215.25 23.3945C215.684 22.1875 216.287 21.1562 217.061 20.3008C217.834 19.4336 218.748 18.7715 219.803 18.3145C220.857 17.8574 222 17.6289 223.23 17.6289C224.59 17.6289 225.779 17.8574 226.799 18.3145C227.818 18.7715 228.662 19.416 229.33 20.248C230.01 21.0684 230.514 22.0469 230.842 23.1836C231.182 24.3203 231.352 25.5742 231.352 26.9453V28.7559H216.656V25.7148H227.168V25.3809C227.145 24.6191 226.992 23.9043 226.711 23.2363C226.441 22.5684 226.025 22.0293 225.463 21.6191C224.9 21.209 224.15 21.0039 223.213 21.0039C222.51 21.0039 221.883 21.1562 221.332 21.4609C220.793 21.7539 220.342 22.1816 219.979 22.7441C219.615 23.3066 219.334 23.9863 219.135 24.7832C218.947 25.5684 218.854 26.4531 218.854 27.4375V28.1406C218.854 28.9727 218.965 29.7461 219.188 30.4609C219.422 31.1641 219.762 31.7793 220.207 32.3066C220.652 32.834 221.191 33.25 221.824 33.5547C222.457 33.8477 223.178 33.9941 223.986 33.9941C225.006 33.9941 225.914 33.7891 226.711 33.3789C227.508 32.9688 228.199 32.3887 228.785 31.6387L231.018 33.8008C230.607 34.3984 230.074 34.9727 229.418 35.5234C228.762 36.0625 227.959 36.502 227.01 36.8418C226.072 37.1816 224.982 37.3516 223.74 37.3516Z" fill="url(#paint0_linear_11_186)"/>
<circle cx="25" cy="25" r="25" fill="url(#paint1_linear_11_186)"/>
<path d="M34.4328 24.211C35.7092 25.0141 35.6713 26.8871 34.3636 27.6381L22.0995 34.6806C20.7506 35.4552 19.0726 34.461 19.104 32.9058L19.3983 18.3314C19.4297 16.7762 21.1465 15.8506 22.4631 16.679L34.4328 24.211Z" fill="white"/>
<defs>
<linearGradient id="paint0_linear_11_186" x1="91.0635" y1="14.0227" x2="207.169" y2="48.4695" gradientUnits="userSpaceOnUse">
<stop stop-color="#651E55"/>
<stop offset="1" stop-color="#D10606"/>
</linearGradient>
<linearGradient id="paint1_linear_11_186" x1="-7" y1="6" x2="59.5" y2="56" gradientUnits="userSpaceOnUse">
<stop stop-color="#651E55"/>
<stop offset="1" stop-color="#D10606"/>
</linearGradient>
</defs>
</svg>
